<?xml version="1.0" encoding="utf-8"?>
<!-- Generator: Adobe Illustrator 16.0.0, SVG Export Plug-In . SVG Version: 6.00 Build 0)  -->
<!DOCTYPE svg PUBLIC "-//W3C//DTD SVG 1.1//EN" "http://www.w3.org/Graphics/SVG/1.1/DTD/svg11.dtd">
<svg version="1.1" id="Layer_1" xmlns="http://www.w3.org/2000/svg" xmlns:xlink="http://www.w3.org/1999/xlink" x="0px" y="0px"
	 width="255.5px" height="255.5px" viewBox="0 -185.5 255.5 255.5" enable-background="new 0 -185.5 255.5 255.5"
	 xml:space="preserve">
<g>
	<polygon points="72.651,-61.665 65.857,-33.554 79.361,-33.554 72.809,-61.665 	"/>
	<path d="M6.385-31.071v4.091c0,20.337,21.982,40.913,49.085,40.913h144.561c27.103,0,49.083-20.583,49.083-40.913v-4.091
		c0-18.907-19.029-42.651-43.491-44.739c-0.553-16.905-14.386-30.438-31.411-30.438c-6.61,0-12.74,2.051-17.805,5.53
		c-9.705-21.625-31.368-36.715-56.611-36.715c-34.269,0-62.046,27.771-62.046,62.055c0,0.612,0.073,1.197,0.09,1.8
		C19.457-68.254,6.385-46.728,6.385-31.071z M84.391-12.306l-3.512-13.978H64.187l-3.68,13.978h-9.502l16.212-57.022h11.658
		l15.012,57.022H84.391z M139.754-12.306h-10.545l-7.346-42.964h-0.159l-7.268,42.964h-10.543L92.867-69.328h9.19l7.502,44.316
		h0.165l7.501-44.316h9.59l7.66,44.557h0.169l7.425-44.557h9.022L139.754-12.306z M173.12-11.19
		c-14.134,0-17.325-9.418-17.325-17.409v-1.362h9.107v1.44c0,6.946,3.035,10.455,9.34,10.455c5.753,0,8.62-4.073,8.62-8.313
		c0-5.987-3.029-8.626-8.14-10.138l-6.233-2.16c-8.314-3.19-11.901-7.499-11.901-15.645c0-10.387,7.029-16.137,17.732-16.137
		c14.612,0,16.125,9.105,16.125,15.009v1.284h-9.1v-1.2c0-5.195-2.316-8.23-7.984-8.23c-3.913,0-7.668,2.159-7.668,8.23
		c0,4.872,2.472,7.343,8.549,9.659l6.144,2.244c8.068,2.867,11.583,7.27,11.583,15.092C191.98-16.217,184.626-11.19,173.12-11.19z"
		/>
	<path fill="#FFFFFF" d="M67.217-69.328L51.005-12.306h9.502l3.68-13.978h16.692l3.512,13.978h9.503L78.881-69.328H67.217z
		 M65.857-33.554l6.788-28.111h0.153l6.55,28.111H65.857z"/>
	<polygon fill="#FFFFFF" points="134.645,-24.771 134.476,-24.771 126.81,-69.328 117.226,-69.328 109.725,-25.012 109.56,-25.012 
		102.058,-69.328 92.867,-69.328 103.894,-12.306 114.437,-12.306 121.698,-55.27 121.863,-55.27 129.209,-12.306 139.754,-12.306 
		151.081,-69.328 142.069,-69.328 	"/>
	<path fill="#FFFFFF" d="M180.391-43.452l-6.143-2.238c-6.07-2.322-8.555-4.787-8.555-9.659c0-6.063,3.755-8.23,7.668-8.23
		c5.674,0,7.989,3.03,7.989,8.23v1.194h9.106v-1.283c0-5.903-1.524-15.003-16.137-15.003c-10.703,0-17.728,5.75-17.728,16.137
		c0,8.146,3.589,12.454,11.896,15.646l6.239,2.165c5.111,1.511,8.14,4.151,8.14,10.132c0,4.234-2.873,8.32-8.62,8.32
		c-6.311,0-9.346-3.515-9.346-10.461v-1.44h-9.102v1.356c0,7.996,3.198,17.409,17.332,17.409c11.493,0,18.848-5.021,18.848-17.169
		C191.98-36.182,188.454-40.585,180.391-43.452z"/>
</g>
</svg>
